<svg xmlns="http://www.w3.org/2000/svg" viewBox="0 0 360 200" fill="none">
  <rect width="360" height="200" rx="12" fill="#0B1F3B" fill-opacity="0.03"/>
  <!-- Three cards -->
  <rect x="30" y="40" width="90" height="120" rx="8" fill="#fff" stroke="#0B1F3B" stroke-opacity="0.08" stroke-width="1"/>
  <rect x="30" y="55" width="50" height="8" rx="2" fill="#10B981" fill-opacity="0.3"/>
  <line x1="30" y1="80" x2="110" y2="80" stroke="#0B1F3B" stroke-opacity="0.1" stroke-width="1"/>
  <line x1="30" y1="95" x2="95" y2="95" stroke="#0B1F3B" stroke-opacity="0.08" stroke-width="1"/>
  <rect x="135" y="40" width="90" height="120" rx="8" fill="#fff" stroke="#0B1F3B" stroke-opacity="0.08" stroke-width="1"/>
  <rect x="135" y="55" width="55" height="8" rx="2" fill="#10B981" fill-opacity="0.3"/>
  <line x1="135" y1="80" x2="215" y2="80" stroke="#0B1F3B" stroke-opacity="0.1" stroke-width="1"/>
  <line x1="135" y1="95" x2="200" y2="95" stroke="#0B1F3B" stroke-opacity="0.08" stroke-width="1"/>
  <rect x="240" y="40" width="90" height="120" rx="8" fill="#fff" stroke="#0B1F3B" stroke-opacity="0.08" stroke-width="1"/>
  <rect x="240" y="55" width="45" height="8" rx="2" fill="#10B981" fill-opacity="0.3"/>
  <line x1="240" y1="80" x2="320" y2="80" stroke="#0B1F3B" stroke-opacity="0.1" stroke-width="1"/>
  <line x1="240" y1="95" x2="305" y2="95" stroke="#0B1F3B" stroke-opacity="0.08" stroke-width="1"/>
  <!-- Target icon -->
  <circle cx="310" cy="160" r="28" fill="#10B981" fill-opacity="0.12" stroke="#10B981" stroke-width="2"/>
  <circle cx="310" cy="160" r="18" fill="none" stroke="#10B981" stroke-width="2"/>
  <circle cx="310" cy="160" r="8" fill="#10B981"/>
</svg>
